<svg width="408" height="389" viewBox="0 0 408 389" fill="none" xmlns="http://www.w3.org/2000/svg">
<rect x="0.5" y="0.5" width="407" height="388" rx="4.5" fill="white" stroke="#D2D2D2"/>
<mask id="path-2-inside-1_104_85" fill="white">
<path fill-rule="evenodd" clip-rule="evenodd" d="M184.6 160.462C184.048 160.462 183.6 160.91 183.6 161.462V170.187H224.4V161.462C224.4 160.91 223.952 160.462 223.4 160.462H184.6ZM154 170.188C153.448 170.188 153 170.635 153 171.188V227.538C153 228.09 153.448 228.538 154 228.538H254C254.552 228.538 255 228.09 255 227.538V171.188C255 170.635 254.552 170.188 254 170.188H154Z"/>
</mask>
<path fill-rule="evenodd" clip-rule="evenodd" d="M184.6 160.462C184.048 160.462 183.6 160.91 183.6 161.462V170.187H224.4V161.462C224.4 160.91 223.952 160.462 223.4 160.462H184.6ZM154 170.188C153.448 170.188 153 170.635 153 171.188V227.538C153 228.09 153.448 228.538 154 228.538H254C254.552 228.538 255 228.09 255 227.538V171.188C255 170.635 254.552 170.188 254 170.188H154Z" fill="white"/>
<path d="M183.6 170.187H182.6V171.187H183.6V170.187ZM224.4 170.187V171.187H225.4V170.187H224.4ZM184.6 161.462V161.462V159.462C183.495 159.462 182.6 160.358 182.6 161.462H184.6ZM184.6 170.187V161.462H182.6V170.187H184.6ZM224.4 169.187H183.6V171.187H224.4V169.187ZM223.4 161.462V170.187H225.4V161.462H223.4ZM223.4 161.462V161.462H225.4C225.4 160.358 224.505 159.462 223.4 159.462V161.462ZM184.6 161.462H223.4V159.462H184.6V161.462ZM154 171.188V171.188V169.188C152.895 169.188 152 170.083 152 171.188H154ZM154 227.538V171.188H152V227.538H154ZM154 227.538H154H152C152 228.642 152.895 229.538 154 229.538V227.538ZM254 227.538H154V229.538H254V227.538ZM254 227.538V229.538C255.105 229.538 256 228.642 256 227.538H254ZM254 171.188V227.538H256V171.188H254ZM254 171.188H256C256 170.083 255.105 169.188 254 169.188V171.188ZM154 171.188H254V169.188H154V171.188Z" fill="#979797" mask="url(#path-2-inside-1_104_85)"/>
<path d="M223.9 199.363C223.9 209.806 215.013 218.313 204 218.313C192.987 218.313 184.1 209.806 184.1 199.363C184.1 188.919 192.987 180.413 204 180.413C215.013 180.413 223.9 188.919 223.9 199.363Z" fill="white" stroke="#979797"/>
</svg>
